<svg xmlns="http://www.w3.org/2000/svg" width="200" height="200" enable-background="new 0 0 200 200" viewBox="0 0 200 200" id="quran">
	<style>
		:root { color-scheme: light dark; }
		#quran path { fill: #22c55e !important; }
		@media (prefers-color-scheme: dark) {
			#quran path { fill: #ffffffff !important; }
		}

		@media (prefers-color-scheme: light) {
			#quran path { fill: #171717ff !important; }
		}
	</style>
  <g>
		<path d="M11.879,83.638l52.538,30.406L31.931,132.84c-0.448,0.26-0.806,0.654-1.019,1.127l-13.527,29.973
		l0.012,0.005c-0.23,0.509-0.299,1.09-0.146,1.66c0.29,1.084,1.273,1.839,2.396,1.839h22.999c0.438,0,0.866-0.116,1.244-0.334
		L100,134.637l56.11,32.474c0.378,0.218,0.807,0.334,1.244,0.334h22.998c1.122,0,2.106-0.755,2.396-1.839
		c0.153-0.569,0.085-1.15-0.146-1.66l0.012-0.005l-13.525-29.973c-0.214-0.473-0.57-0.868-1.02-1.127l-32.487-18.797l52.538-30.405
		c1.185-0.686,1.59-2.204,0.906-3.39l-5.749-9.958c-0.329-0.571-0.871-0.987-1.508-1.157c-0.639-0.169-1.314-0.082-1.886,0.25
		l-2.969,1.719l-6.887-11.926c-0.098-0.166-0.21-0.318-0.34-0.455h0.002l-23.752-25.377c-0.784-0.84-2.047-1.03-3.041-0.46
		c-7.759,4.425-15.644,7.438-21.402,9.638l-1.722,0.659c-10.405,4.011-16.352,8.846-19.331,16.839
		c-2.97-7.93-8.892-12.815-19.332-16.84l-1.71-0.655c-5.76-2.201-13.649-5.213-21.412-9.642c-0.997-0.568-2.257-0.379-3.042,0.46
		L31.194,58.72h0.002c-0.13,0.137-0.242,0.289-0.339,0.455l-7.107,12.31l-3.634-2.103c-0.573-0.331-1.249-0.418-1.884-0.25
		c-0.637,0.17-1.181,0.586-1.51,1.157l-5.75,9.958C10.289,81.435,10.694,82.952,11.879,83.638z M35.107,136.737l34.268-19.825
		l14.178,8.206l-58.469,33.83L35.107,136.737z M41.98,162.479H28.894l59.614-34.493l6.536,3.782L41.98,162.479z M164.894,136.737
		l10.022,22.21l-58.469-33.83l14.18-8.207L164.894,136.737z M180.222,74.924l3.267,5.66l-71.999,41.667l-6.533-3.78L180.222,74.924z
		 M172.619,73.587l-69.606,40.272c0.619-14.917,5.069-20.828,18.548-26.022l2.571-0.983c10.636-4.048,29.91-11.386,43.121-22.56
		L172.619,73.587z M121.561,47.812l1.707-0.654c5.182-1.979,12.824-4.9,20.374-9.006l20.681,22.097
		c-12.551,10.758-31.524,17.995-41.956,21.967l-2.592,0.99c-8.068,3.11-13.444,6.723-16.85,11.91V77.836
		C102.925,59.905,106.93,53.451,121.561,47.812z M57.246,38.151c7.554,4.109,15.199,7.03,20.384,9.01l1.696,0.65
		c13.999,5.396,18.17,11.512,18.599,27.259c0.015,0.559,0.026,1.128,0.032,1.708h0.023c-0.005,0.358-0.02,0.692-0.02,1.057v17.279
		c-3.403-5.188-8.781-8.8-16.849-11.91l-2.588-0.989c-10.434-3.972-29.409-11.208-41.961-21.968L57.246,38.151z M33.633,64.294
		c13.213,11.176,32.49,18.513,43.125,22.562l2.568,0.981c13.64,5.258,18.041,11.233,18.574,26.55L28.047,73.971L33.633,64.294z
		 M19.78,74.924l151.326,87.555h-13.085L16.512,80.583L19.78,74.924z"></path>
  </g>
</svg>
